<?xml version="1.0" standalone="no"?>
<!DOCTYPE svg PUBLIC "-//W3C//DTD SVG 20010904//EN"
 "http://www.w3.org/TR/2001/REC-SVG-20010904/DTD/svg10.dtd">
<svg version="1.0" xmlns="http://www.w3.org/2000/svg"
 width="260.000000pt" height="260.000000pt" viewBox="0 0 260.000000 260.000000"
 preserveAspectRatio="xMidYMid meet">
<metadata>
Created by potrace 1.14, written by Peter Selinger 2001-2017
</metadata>
<g transform="translate(0.000000,260.000000) scale(0.100000,-0.100000)"
fill="#000000" stroke="none">
<path d="M0 1300 l0 -1300 1300 0 1300 0 0 1300 0 1300 -1300 0 -1300 0 0
-1300z m2590 0 l0 -1290 -1290 0 -1290 0 0 1290 0 1290 1290 0 1290 0 0 -1290z"/>
<path d="M1727 1864 c-4 -4 -7 -29 -7 -55 l0 -48 -47 -6 c-306 -43 -464 -167
-496 -390 -21 -145 17 -270 113 -366 83 -84 210 -137 367 -155 l62 -6 3 -57 3
-56 110 0 110 0 3 55 3 56 87 12 c294 40 452 197 453 448 1 229 -120 372 -366
434 -44 10 -101 22 -127 25 l-47 6 -3 52 -3 52 -106 3 c-58 1 -108 -1 -112 -4z
m-11 -832 c-3 -2 -38 3 -78 12 -158 35 -234 125 -226 270 5 104 40 159 128
204 36 17 90 36 120 40 l55 7 3 -264 c1 -145 0 -266 -2 -269z m383 499 c112
-42 168 -134 158 -257 -10 -133 -100 -215 -261 -239 l-46 -7 0 269 0 270 48
-8 c26 -4 71 -16 101 -28z"/>
<path d="M555 1826 c-210 -49 -351 -170 -416 -356 -32 -92 -32 -257 0 -350 82
-239 312 -384 581 -366 144 9 255 53 341 133 27 25 49 49 49 53 0 4 -34 37
-75 74 l-76 68 -41 -37 c-69 -63 -119 -80 -228 -80 -75 1 -104 5 -140 22 -115
53 -180 151 -188 282 -9 149 52 263 173 325 55 28 68 31 155 31 109 0 160 -18
228 -80 l42 -37 75 69 c41 37 75 72 75 77 0 17 -80 83 -138 114 -31 16 -82 37
-112 46 -77 23 -231 29 -305 12z"/>
</g>
</svg>
